<svg id="Capa_1" enable-background="new 0 0 512 512" height="512" viewBox="0 0 512 512" width="512" xmlns="http://www.w3.org/2000/svg"><g><g><path d="m481.994 391c0 19.499-12.598 36-30 42.299v17.701c0 8.399-6.599 15-15 15s-15-6.601-15-15v-17.701c-17.402-6.299-30-22.8-30-42.299v-15h-15c-8.401 0-15-6.601-15-15 0-8.401 6.599-15 15-15h15v-15c0-19.501 12.598-36 30-42.301v-34.199l15-28.5 15 28.5v34.199c17.402 6.301 30 22.8 30 42.301 0 8.399-6.599 15-15 15s-15-6.601-15-15c0-8.401-6.599-15-15-15s-15 6.599-15 15v15h15c8.401 0 15 6.599 15 15 0 8.399-6.599 15-15 15h-15v15c0 8.399 6.599 15 15 15s15-6.601 15-15c0-8.401 6.599-15 15-15s15 6.599 15 15z" fill="#26bfa5"/></g><path d="m120.006 391c0 19.499-12.599 36-30 42.299v17.701c0 8.399-6.599 15-15 15s-15-6.601-15-15v-17.701c-6.301-2.1-12.001-5.7-16.8-10.499-6-6-6-15.3 0-21.301 6-5.7 15.3-5.7 21.301 0 8.399 8.701 25.499 1.8 25.499-10.499 0-8.401-6.599-15-15-15-24.901 0-45-20.101-45-45 0-19.501 12.599-36 30-42.301v-34.199l15-28.5 15 28.5v34.199c6.301 2.1 12.001 5.7 16.8 10.501 6 6 6 15.3 0 21.299-6 5.7-15.3 5.7-21.301 0-8.399-8.699-25.499-1.8-25.499 10.501 0 8.399 6.599 15 15 15 24.9 0 45 20.099 45 45z" fill="#59deb1"/><g><path d="m510.412 174.291-60-120c-2.649-3.005-4.881-8.152-13.418-8.135-5.85-.012-11.281 3.877-13.418 8.135l-60 120c-3.706 7.412-.703 16.421 6.709 20.127 7.487 3.718 16.439.646 20.127-6.709l46.582-93.164 46.582 93.164c3.691 7.361 12.647 10.423 20.127 6.709 7.412-3.706 10.415-12.715 6.709-20.127z" fill="#ff9f40"/><path d="m88.424 54.291c-2.661-3.016-4.873-8.152-13.423-8.135-8.5-.017-10.59 4.936-13.412 8.135l-60 120c-3.706 7.412-.703 16.421 6.709 20.127 7.487 3.718 16.439.646 20.127-6.709l46.582-93.164 46.582 93.164c3.691 7.361 12.647 10.423 20.127 6.709 7.412-3.706 10.415-12.715 6.709-20.127z" fill="#ffbe40"/></g><g id="Balance_2_"><g><path d="m226 76h-143.714c-49.674 0-74.884-32.323-77.886-34.395-5.859-5.859-5.859-15.352 0-21.211s15.352-5.859 21.211 0c3.025 2.115 20.478 25.606 56.675 25.606h143.714c8.291 0 15 6.709 15 15s-6.709 15-15 15z" fill="#ffbe40"/></g><g><path d="m429.714 76h-143.714c-8.291 0-15-6.709-15-15s6.709-15 15-15h143.714c36.146 0 53.674-23.508 56.675-25.605 5.859-5.859 15.352-5.859 21.211 0s5.859 15.352 0 21.211c-3 2.07-28.227 34.394-77.886 34.394z" fill="#ff9f40"/></g><g><path d="m135.006 166h-120c-8.401 0-15 6.599-15 15 0 36.299 25.8 66.599 60 73.5 4.799.899 9.901 1.5 15 1.5s10.201-.601 15-1.5c34.2-6.901 60-37.202 60-73.5 0-8.401-6.599-15-15-15z" fill="#ffdf40"/></g><g><path d="m496.994 166h-120c-8.401 0-15 6.599-15 15 0 36.299 25.8 66.599 60 73.5 4.797.899 9.902 1.5 15 1.5s10.203-.601 15-1.5c34.2-6.901 60-37.202 60-73.5 0-8.401-6.599-15-15-15z" fill="#ffbe40"/></g><g><path d="m256 466c-8.291 0-15-6.709-15-15v-360c0-8.291 6.709-15 15-15s15 6.709 15 15v360c0 8.291-6.709 15-15 15z" fill="#ffbe40"/></g><path d="m271 451v-360c0-8.291-6.709-15-15-15v390c8.291 0 15-6.709 15-15z" fill="#ff9f40"/><g><path d="m256 106c-24.814 0-45-20.186-45-45s20.186-45 45-45 45 20.186 45 45-20.186 45-45 45z" fill="#ffdf40"/></g><path d="m301 61c0-24.814-20.186-45-45-45v90c24.814 0 45-20.186 45-45z" fill="#ffbe40"/></g><g><path d="m183.156 496c-9.545 0-17.23-9.151-14.323-18.243 7.736-24.195 30.434-41.757 57.167-41.757h60c26.733 0 49.431 17.562 57.167 41.757 2.907 9.092-4.778 18.243-14.323 18.243z" fill="#ffdf40"/></g><g><path d="m256 496h72.843c9.545 0 17.23-9.152 14.324-18.243-7.736-24.195-30.434-41.757-57.167-41.757h-30z" fill="#ffbe40"/></g></g></svg>